#N canvas 531 43 442 304 12;
#X declare -path quacktrip-0.4/lib;
#N canvas 261 133 850 557 udp-connections 0;
#X obj 21 177 print status;
#X floatatom 251 384 5 0 0 0 - - -;
#X obj 21 132 netsend -u -b;
#X obj 31 254 bng 15 250 50 0 empty empty empty 17 7 0 10 -262144 -1
-1;
#X symbolatom 87 259 10 0 0 0 - - -;
#X obj 31 459 oscformat event;
#X floatatom 172 244 5 0 0 0 - - -;
#X msg 171 267 \$1 2 3;
#X obj 251 307 tgl 15 0 empty empty empty 17 7 0 10 -262144 -1 -1 0
1;
#X obj 251 330 metro 1000;
#X obj 251 356 random 100;
#X obj 185 165 oscparse;
#X obj 433 78 list split 1;
#X obj 21 17 r to-udp-connection;
#X obj 31 484 s to-udp-connection;
#X obj 21 46 list prepend send;
#X obj 21 72 list trim;
#X obj 29 103 r netsend;
#X obj 185 101 r netreceive;
#X obj 185 191 list-send;
#X obj 593 45 r send;
#X obj 593 71 list-send;
#X obj 251 280 r tester;
#X obj 433 50 r chat;
#X obj 433 104 list append says:;
#X obj 433 130 list;
#X obj 433 156 print chat;
#X obj 431 358 timer;
#X floatatom 431 396 5 0 0 0 - - -;
#X obj 431 431 list prepend;
#X obj 597 308 t b a;
#X obj 431 243 r to-udp-connection;
#X obj 431 269 route event;
#X obj 431 321 bang;
#X obj 597 247 r event;
#X obj 597 275 route carrot;
#X obj 431 295 route carrot;
#X obj 431 457 print latency;
#X obj 31 435 list prepend carrot;
#X obj 181 8 loadbang;
#X msg 594 148 \; netsend disconnect \; netreceive listen 0 \;;
#X msg 182 32 \; netsend connect localhost 8098 \; netreceive listen
8090;
#X obj 594 118 r close;
#X obj 185 129 netreceive -u -b;
#X connect 1 0 38 0;
#X connect 2 0 0 0;
#X connect 3 0 38 0;
#X connect 4 0 38 0;
#X connect 5 0 14 0;
#X connect 6 0 7 0;
#X connect 7 0 38 0;
#X connect 8 0 9 0;
#X connect 9 0 10 0;
#X connect 10 0 1 0;
#X connect 11 0 19 0;
#X connect 12 0 24 0;
#X connect 12 1 25 1;
#X connect 13 0 15 0;
#X connect 15 0 16 0;
#X connect 16 0 2 0;
#X connect 17 0 2 0;
#X connect 18 0 43 0;
#X connect 20 0 21 0;
#X connect 22 0 8 0;
#X connect 23 0 12 0;
#X connect 24 0 25 0;
#X connect 25 0 26 0;
#X connect 27 0 28 0;
#X connect 28 0 29 0;
#X connect 29 0 37 0;
#X connect 30 0 27 1;
#X connect 30 1 29 1;
#X connect 31 0 32 0;
#X connect 32 0 36 0;
#X connect 33 0 27 0;
#X connect 34 0 35 0;
#X connect 35 0 30 0;
#X connect 36 0 33 0;
#X connect 38 0 5 0;
#X connect 39 0 41 0;
#X connect 42 0 40 0;
#X connect 43 0 11 0;
#X restore 24 39 pd udp-connections;
#N canvas 0 22 590 449 quacktrip 0;
#X obj 16 22 declare -path quacktrip-0.4/lib;
#X obj 392 108 adc~ 1 2;
#X obj 393 188 dac~ 1 2;
#X obj 361 149 clone quack-panel 2;
#X msg 19 151 list me-and-dog me-and-cat;
#X msg 29 181 list me-and-dog cat-and-dog;
#X msg 39 211 list me-and-cat cat-and-dog;
#X obj 23 93 r player;
#X obj 23 119 sel 0 1 2;
#X msg 29 263 \; quack-panel-0 call-name symbol \$1 \, onoff 1 \; quack-panel-1
call-name symbol \$2 \, onoff 1 \;;
#X connect 1 0 3 0;
#X connect 1 1 3 1;
#X connect 3 0 2 0;
#X connect 3 1 2 1;
#X connect 4 0 9 0;
#X connect 5 0 9 0;
#X connect 6 0 9 0;
#X connect 7 0 8 0;
#X connect 8 0 4 0;
#X connect 8 1 5 0;
#X connect 8 2 6 0;
#X restore 22 78 pd quacktrip;
