#N canvas 523 46 536 432 12;
#X msg 23 28 connect localhost 8098;
#X obj 57 379 print status;
#X floatatom 70 113 5 0 0 0 - - -;
#X obj 70 288 list prepend send;
#X obj 70 314 list trim;
#X obj 56 346 netsend -u -b;
#X obj 210 288 list prepend send;
#X obj 210 314 list trim;
#X obj 210 192 oscformat control;
#X obj 83 135 bng 15 250 50 0 empty empty empty 17 7 0 10 -262144 -1
-1;
#X symbolatom 149 71 10 0 0 0 - - -;
#X msg 42 58 disconnect;
#X obj 70 255 oscformat event;
#X obj 70 192 list prepend event1;
#X floatatom 170 144 5 0 0 0 - - -;
#X msg 109 140 \$1 2 3;
#X msg 149 96 symbol \$1;
#X obj 276 44 tgl 15 0 empty empty empty 17 7 0 10 -262144 -1 -1 1
1;
#X obj 276 64 metro 1000;
#X obj 276 90 random 100;
#X floatatom 275 117 5 0 0 0 - - -;
#X obj 442 316 spigot;
#X obj 442 342 print;
#X connect 0 0 5 0;
#X connect 2 0 13 0;
#X connect 3 0 4 0;
#X connect 4 0 5 0;
#X connect 5 0 1 0;
#X connect 5 0 21 1;
#X connect 6 0 7 0;
#X connect 7 0 5 0;
#X connect 8 0 6 0;
#X connect 9 0 13 0;
#X connect 10 0 16 0;
#X connect 11 0 5 0;
#X connect 12 0 3 0;
#X connect 13 0 12 0;
#X connect 14 0 15 0;
#X connect 15 0 13 0;
#X connect 16 0 13 0;
#X connect 17 0 18 0;
#X connect 18 0 19 0;
#X connect 19 0 13 0;
#X connect 19 0 20 0;
#X connect 19 0 21 0;
#X connect 21 0 22 0;
