#N canvas 416 30 831 709 12;
#X floatatom 312 556 5 0 0 0 - - -;
#X obj 23 264 netsend -u -b;
#X obj 38 436 bng 15 250 50 0 empty empty empty 17 7 0 10 -262144 -1
-1;
#X symbolatom 94 441 10 0 0 0 - - -;
#X obj 48 614 oscformat event;
#X floatatom 179 426 5 0 0 0 - - -;
#X msg 178 449 \$1 2 3;
#X obj 314 477 tgl 15 0 empty empty empty 17 7 0 10 -262144 -1 -1 0
1;
#X obj 312 502 metro 1000;
#X obj 312 528 random 100;
#X obj 211 270 oscparse;
#X obj 450 262 list split 1;
#X obj 23 129 r to-udp-connection;
#X obj 48 639 s to-udp-connection;
#X obj 23 158 list prepend send;
#X obj 23 184 list trim;
#X obj 31 235 r netsend;
#X obj 211 206 r netreceive;
#X obj 211 311 list-send;
#X obj 631 180 r send;
#X obj 626 207 list-send;
#X obj 312 448 r tester;
#X obj 473 213 r chat;
#X obj 450 288 list append says:;
#X obj 450 314 list;
#X obj 450 340 print chat;
#X obj 476 549 timer;
#X floatatom 476 587 5 0 0 0 - - -;
#X obj 476 622 list prepend;
#X obj 571 533 t b a;
#X obj 475 436 r to-udp-connection;
#X obj 476 460 route event;
#X obj 476 512 bang;
#X obj 633 358 r event;
#X obj 642 466 route carrot;
#X obj 476 486 route carrot;
#X obj 476 648 print latency;
#X obj 48 590 list prepend carrot;
#X obj 195 67 loadbang;
#X msg 606 296 \; netsend disconnect \; netreceive listen 0 \;;
#X msg 192 120 \; netsend connect localhost 8098 \; netreceive listen
8090;
#X obj 622 257 r close;
#X obj 211 234 netreceive -u -b;
#X text 213 187 from max;
#X text 35 214 to max;
#X text 311 423 Tester:;
#X text 36 405 Carrot events to max:;
#X text 26 98 Prepare the network: -----------------------------;
#X text 465 119 receive from max------------------------;
#X text 28 370 send to max -------------------;
#X text 461 404 Check 'carrot' Latency -------------------;
#X text 695 663 fdch 2021;
#X text 224 10 This patch networks with "client.maxpat" with osc-type
messages to demonstrate possible interactions with the Heroku Sonic
Arts Server.;
#X obj 35 292 tgl 15 0 empty empty empty 17 7 0 10 -262144 -1 -1 0
1;
#X text 52 291 status;
#X text 145 290 parse and send to pd receivers;
#X text 640 154 "send" wherever whatever;
#X text 454 170 "chat" "hello there";
#X text 589 383 /event "something" "values...";
#X obj 656 576 r control;
#X text 585 606 /control "something" "values...";
#X connect 0 0 37 0;
#X connect 1 0 53 0;
#X connect 2 0 37 0;
#X connect 3 0 37 0;
#X connect 4 0 13 0;
#X connect 5 0 6 0;
#X connect 6 0 37 0;
#X connect 7 0 8 0;
#X connect 8 0 9 0;
#X connect 9 0 0 0;
#X connect 10 0 18 0;
#X connect 11 0 23 0;
#X connect 11 1 24 1;
#X connect 12 0 14 0;
#X connect 14 0 15 0;
#X connect 15 0 1 0;
#X connect 16 0 1 0;
#X connect 17 0 42 0;
#X connect 19 0 20 0;
#X connect 21 0 7 0;
#X connect 22 0 11 0;
#X connect 23 0 24 0;
#X connect 24 0 25 0;
#X connect 26 0 27 0;
#X connect 27 0 28 0;
#X connect 28 0 36 0;
#X connect 29 0 26 1;
#X connect 29 1 28 1;
#X connect 30 0 31 0;
#X connect 31 0 35 0;
#X connect 32 0 26 0;
#X connect 33 0 34 0;
#X connect 34 0 29 0;
#X connect 35 0 32 0;
#X connect 37 0 4 0;
#X connect 38 0 40 0;
#X connect 41 0 39 0;
#X connect 42 0 10 0;
