#N canvas 531 43 442 304 12;
#X declare -path quacktrip-0.4/lib;
#N canvas -112 465 736 520 udp-connections 1;
#X msg 23 28 connect localhost 8098;
#X obj 21 412 print status;
#X floatatom 210 180 5 0 0 0 - - -;
#X obj 70 288 list prepend send;
#X obj 70 314 list trim;
#X obj 23 369 netsend -u -b;
#X obj 67 101 bng 15 250 50 0 empty empty empty 17 7 0 10 -262144 -1
-1;
#X symbolatom 123 106 10 0 0 0 - - -;
#X msg 42 58 disconnect;
#X obj 70 255 oscformat event;
#X obj 69 226 list prepend event1;
#X floatatom 152 134 5 0 0 0 - - -;
#X msg 151 157 \$1 2 3;
#X obj 328 156 tgl 15 0 empty empty empty 17 7 0 10 -262144 -1 -1 0
1;
#X obj 328 176 metro 1000;
#X obj 328 202 random 100;
#X obj 328 32 netreceive -u -b 8090;
#X obj 328 58 oscparse;
#X obj 328 84 list trim;
#X obj 22 4 loadbang;
#X obj 437 178 route event1;
#X obj 70 337 t a b;
#X obj 438 250 t b a;
#X obj 365 300 timer;
#X floatatom 365 352 5 0 0 0 - - -;
#X obj 365 403 list prepend;
#X obj 365 429 print;
#X obj 365 377 list prepend latency;
#X obj 537 232 list split 1;
#X obj 538 285 symbol;
#X symbolatom 538 311 10 0 0 0 - - -;
#X symbolatom 547 348 0 0 0 0 - - -;
#X obj 547 170 s player;
#X obj 328 114 route tester event chat player send;
#X obj 535 22 t a a;
#X obj 580 50 list split 1;
#X obj 490 50 list split 1;
#X obj 536 92 s;
#X obj 609 71 symbol;
#X obj 533 71 list trim;
#X connect 0 0 5 0;
#X connect 2 0 10 0;
#X connect 3 0 4 0;
#X connect 4 0 21 0;
#X connect 5 0 1 0;
#X connect 6 0 10 0;
#X connect 7 0 10 0;
#X connect 8 0 5 0;
#X connect 9 0 3 0;
#X connect 10 0 9 0;
#X connect 11 0 12 0;
#X connect 12 0 10 0;
#X connect 13 0 14 0;
#X connect 14 0 15 0;
#X connect 15 0 2 0;
#X connect 16 0 17 0;
#X connect 17 0 18 0;
#X connect 18 0 33 0;
#X connect 19 0 0 0;
#X connect 20 0 22 0;
#X connect 21 0 5 0;
#X connect 21 1 23 0;
#X connect 22 0 23 1;
#X connect 22 1 25 1;
#X connect 23 0 24 0;
#X connect 24 0 27 0;
#X connect 25 0 26 0;
#X connect 27 0 25 0;
#X connect 28 0 29 0;
#X connect 28 1 31 0;
#X connect 29 0 30 0;
#X connect 33 0 13 0;
#X connect 33 1 20 0;
#X connect 33 2 28 0;
#X connect 33 3 32 0;
#X connect 33 4 34 0;
#X connect 34 0 36 0;
#X connect 34 1 35 0;
#X connect 35 0 38 0;
#X connect 36 1 39 0;
#X connect 38 0 37 1;
#X connect 39 0 37 0;
#X restore 24 39 pd udp-connections;
#N canvas 0 22 590 449 quacktrip 0;
#X obj 16 22 declare -path quacktrip-0.4/lib;
#X obj 392 108 adc~ 1 2;
#X obj 393 188 dac~ 1 2;
#X obj 361 149 clone quack-panel 2;
#X msg 19 151 list me-and-dog me-and-cat;
#X msg 29 181 list me-and-dog cat-and-dog;
#X msg 39 211 list me-and-cat cat-and-dog;
#X obj 23 93 r player;
#X obj 23 119 sel 0 1 2;
#X msg 29 263 \; quack-panel-0 call-name symbol \$1 \, onoff 1 \; quack-panel-1
call-name symbol \$2 \, onoff 1 \;;
#X connect 1 0 3 0;
#X connect 1 1 3 1;
#X connect 3 0 2 0;
#X connect 3 1 2 1;
#X connect 4 0 9 0;
#X connect 5 0 9 0;
#X connect 6 0 9 0;
#X connect 7 0 8 0;
#X connect 8 0 4 0;
#X connect 8 1 5 0;
#X connect 8 2 6 0;
#X restore 22 78 pd quacktrip;
