#N canvas 0 22 450 300 12;
#X obj 36 65 t a a;
#X obj 151 124 list split 1;
#X obj 36 124 list split 1;
#X obj 133 217 s;
#X obj 151 156 symbol;
#X obj 76 156 list trim;
#X obj 36 29 inlet;
#X obj 36 224 bang;
#X obj 36 250 outlet;
#X connect 0 0 2 0;
#X connect 0 1 1 0;
#X connect 1 0 4 0;
#X connect 2 0 7 0;
#X connect 2 1 5 0;
#X connect 4 0 3 1;
#X connect 5 0 3 0;
#X connect 6 0 0 0;
#X connect 7 0 8 0;
